<svg width="302" height="121" viewBox="0 0 302 121" fill="none" xmlns="http://www.w3.org/2000/svg">
<path d="M42 72.25V83.5C42 84.8807 40.8807 86 39.5 86H31.375" stroke="#00ECDE" stroke-width="4" stroke-linecap="round" stroke-linejoin="round"/>
<path d="M42 51V38.5C42 37.1193 40.8807 36 39.5 36H4.5C3.11929 36 2 37.1193 2 38.5V83.5C2 84.8807 3.11929 86 4.5 86H12" stroke="#00ECDE" stroke-width="4" stroke-linecap="round" stroke-linejoin="round"/>
<path d="M12 51H29.5" stroke="#32EE88" stroke-width="4" stroke-linecap="round"/>
<path d="M20.75 86L42 59.75" stroke="#32EE88" stroke-width="4" stroke-linecap="round"/>
<path d="M12 61H22" stroke="#32EE88" stroke-width="4" stroke-linecap="round"/>
<path d="M64 3L63 118" stroke="white" stroke-width="5" stroke-linecap="round"/>
<path d="M84.7231 48.0488C86.2498 48.2311 87.5715 48.3678 88.688 48.459C89.8045 48.5273 90.7274 48.5843 91.4565 48.6299C92.2996 48.6755 93.006 48.6868 93.5757 48.6641C94.1681 48.6413 94.9771 48.5843 96.0024 48.4932C96.8683 48.4248 98.0076 48.3337 99.4204 48.2197C100.833 48.083 102.599 47.9007 104.718 47.6729C104.741 48.1969 104.752 48.7096 104.752 49.2109C104.775 49.6895 104.798 50.111 104.821 50.4756C104.844 50.9085 104.855 51.3073 104.855 51.6719C104.855 52.0592 104.832 52.5492 104.787 53.1416C104.741 53.6429 104.661 54.2809 104.547 55.0557C104.456 55.8076 104.308 56.7077 104.103 57.7559C103.784 56.5254 103.476 55.5342 103.18 54.7822C102.884 54.0075 102.611 53.3923 102.36 52.9365C102.086 52.4124 101.813 52.0137 101.54 51.7402C101.243 51.5352 100.89 51.3643 100.48 51.2275C100.115 51.1136 99.6483 51.0225 99.0786 50.9541C98.5317 50.8857 97.8823 50.8971 97.1304 50.9883C97.0164 53.9961 96.9367 56.4342 96.8911 58.3027C96.8455 60.1712 96.8114 61.6296 96.7886 62.6777C96.7658 63.931 96.7544 64.8311 96.7544 65.3779C96.7772 66.1527 96.9025 66.916 97.1304 67.668C97.3127 68.306 97.6089 68.9668 98.019 69.6504C98.4292 70.334 99.0216 70.9378 99.7964 71.4619H95.6265C95.2391 71.4619 94.7606 71.4847 94.1909 71.5303C93.7124 71.5758 93.0972 71.6214 92.3452 71.667C91.616 71.7126 90.7616 71.7923 89.7817 71.9062C90.1235 71.3138 90.397 70.7783 90.6021 70.2998C90.8071 69.8213 90.9666 69.4111 91.0806 69.0693C91.2173 68.6592 91.3198 68.2946 91.3882 67.9756C91.411 67.5199 91.4679 66.597 91.5591 65.207C91.5819 64.6374 91.6047 63.931 91.6274 63.0879C91.673 62.2448 91.7186 61.2422 91.7642 60.0801C91.8325 58.918 91.8895 57.585 91.9351 56.0811C92.0034 54.5544 92.0718 52.834 92.1401 50.9199C91.73 50.806 91.3426 50.8174 90.978 50.9541C90.6134 51.068 90.2944 51.2161 90.021 51.3984C89.702 51.6263 89.3944 51.8997 89.0981 52.2188C88.8019 52.6061 88.4715 53.1074 88.1069 53.7227C87.7879 54.2467 87.4233 54.9417 87.0132 55.8076C86.603 56.6507 86.1359 57.6989 85.6118 58.9521C85.4979 57.6305 85.4181 56.5482 85.3726 55.7051C85.327 54.8392 85.2928 54.167 85.27 53.6885C85.2472 53.1188 85.2358 52.6973 85.2358 52.4238C85.2358 52.1732 85.2131 51.8428 85.1675 51.4326C85.1219 51.0908 85.0649 50.6465 84.9966 50.0996C84.9282 49.5299 84.8371 48.8464 84.7231 48.0488ZM102.428 49.6553C104.023 49.7008 105.345 49.735 106.393 49.7578C107.464 49.7578 108.33 49.7578 108.991 49.7578H110.802H120.988C121.033 50.2135 121.068 50.6579 121.09 51.0908C121.136 51.501 121.159 51.8656 121.159 52.1846C121.159 52.5719 121.147 52.9251 121.125 53.2441C121.102 53.5632 121.068 53.9049 121.022 54.2695C120.976 54.5885 120.931 54.9303 120.885 55.2949C120.84 55.6595 120.76 56.0355 120.646 56.4229C120.327 55.1924 119.894 54.2581 119.347 53.6201C118.823 52.9821 118.288 52.515 117.741 52.2188C117.103 51.877 116.431 51.6947 115.724 51.6719C114.79 51.7174 114.061 51.7972 113.537 51.9111C113.013 52.0251 112.602 52.1846 112.306 52.3896C112.01 52.5947 111.782 52.834 111.623 53.1074C111.486 53.3581 111.338 53.6429 111.178 53.9619C111.042 54.2354 110.916 54.6569 110.802 55.2266C110.688 55.7051 110.574 56.3545 110.46 57.1748C110.369 57.9951 110.267 59.0547 110.153 60.3535C110.768 60.1712 111.258 60.0003 111.623 59.8408C112.01 59.6813 112.318 59.5446 112.545 59.4307C112.796 59.2939 112.978 59.1686 113.092 59.0547C113.183 58.918 113.32 58.6673 113.502 58.3027C113.639 57.9837 113.821 57.5508 114.049 57.0039C114.3 56.457 114.596 55.7051 114.938 54.748C114.984 55.7962 115.006 56.6735 115.006 57.3799C115.006 58.0635 115.018 58.6217 115.041 59.0547C115.041 59.556 115.052 59.9548 115.075 60.251V61.5498C115.075 62.0283 115.075 62.6777 115.075 63.498C115.097 64.2956 115.132 65.3096 115.177 66.54C114.904 65.6969 114.653 65.0361 114.425 64.5576C114.22 64.0563 114.038 63.6803 113.878 63.4297C113.696 63.1335 113.537 62.9284 113.4 62.8145C113.24 62.7689 113.024 62.7233 112.75 62.6777C112.5 62.6549 112.181 62.6436 111.793 62.6436C111.429 62.6436 110.962 62.7005 110.392 62.8145C110.324 64.0677 110.312 65.0817 110.358 65.8564C110.426 66.6084 110.517 67.1895 110.631 67.5996C110.745 68.0781 110.882 68.4199 111.042 68.625C111.247 68.8301 111.657 69.001 112.272 69.1377C112.887 69.2516 113.582 69.2972 114.357 69.2744C115.154 69.2288 115.963 69.0921 116.784 68.8643C117.604 68.6364 118.333 68.2604 118.971 67.7363C119.45 67.3034 119.962 66.7565 120.509 66.0957C120.965 65.526 121.466 64.8083 122.013 63.9424C122.583 63.0765 123.141 62.0283 123.688 60.7979C123.597 61.8232 123.528 62.6777 123.483 63.3613C123.46 64.0221 123.426 64.5576 123.38 64.9678C123.335 65.4463 123.301 65.8109 123.278 66.0615C123.278 66.335 123.244 66.7223 123.175 67.2236C123.13 67.6566 123.05 68.249 122.936 69.001C122.845 69.7301 122.72 70.6644 122.56 71.8037C121.489 71.8265 120.475 71.8493 119.518 71.8721C118.561 71.8721 117.718 71.8835 116.989 71.9062C116.123 71.929 115.325 71.9518 114.596 71.9746C113.844 71.9746 113.013 72.0088 112.101 72.0771C111.304 72.1227 110.358 72.1911 109.264 72.2822C108.193 72.3734 107.008 72.4987 105.709 72.6582C105.823 71.1087 105.903 69.6504 105.949 68.2832C106.017 66.8932 106.063 65.6742 106.085 64.626C106.108 63.3955 106.108 62.2562 106.085 61.208C106.199 58.5876 106.154 56.4684 105.949 54.8506C105.744 53.2327 105.504 52.196 105.231 51.7402C105.094 51.5807 104.901 51.387 104.65 51.1592C104.445 50.9769 104.16 50.7604 103.795 50.5098C103.431 50.2591 102.975 49.9743 102.428 49.6553ZM121.774 49.792C122.777 49.8376 123.631 49.8717 124.337 49.8945C125.044 49.9173 125.625 49.9401 126.081 49.9629C126.627 49.9857 127.072 50.0085 127.414 50.0312C127.778 50.054 128.234 50.0654 128.781 50.0654C129.715 50.0654 131.037 49.9971 132.746 49.8604C132.381 50.0426 132.096 50.2477 131.891 50.4756C131.686 50.6807 131.527 50.8857 131.413 51.0908C131.276 51.3415 131.173 51.5807 131.105 51.8086C131.059 52.082 131.162 52.5036 131.413 53.0732C131.595 53.5518 131.925 54.2012 132.404 55.0215C132.882 55.8418 133.589 56.9014 134.523 58.2002C135.639 56.5596 136.505 55.2721 137.121 54.3379C137.736 53.4036 138.192 52.6973 138.488 52.2188C138.83 51.6491 139.035 51.2731 139.103 51.0908C139.08 50.9769 138.989 50.8174 138.83 50.6123C138.693 50.43 138.465 50.2135 138.146 49.9629C137.85 49.6895 137.405 49.359 136.813 48.9717C137.747 49.1084 138.522 49.2109 139.137 49.2793C139.775 49.3477 140.288 49.3932 140.675 49.416C141.131 49.4388 141.507 49.4388 141.803 49.416C142.099 49.3932 142.532 49.3704 143.102 49.3477C143.581 49.3249 144.219 49.3021 145.016 49.2793C145.836 49.2565 146.885 49.2223 148.161 49.1768C147.659 49.4274 147.226 49.6667 146.862 49.8945C146.497 50.1224 146.19 50.3275 145.939 50.5098C145.643 50.7376 145.381 50.9313 145.153 51.0908C144.879 51.3643 144.378 51.9225 143.649 52.7656C143.034 53.4948 142.156 54.5658 141.017 55.9785C139.878 57.3685 138.351 59.2598 136.437 61.6523C137.986 63.293 139.24 64.5918 140.197 65.5488C141.154 66.5059 141.906 67.235 142.453 67.7363C143.091 68.3288 143.558 68.7275 143.854 68.9326C144.127 69.0921 144.503 69.2972 144.982 69.5479C145.392 69.7757 145.928 70.0605 146.588 70.4023C147.249 70.7214 148.092 71.1087 149.118 71.5645H143.41C142.931 71.5645 142.35 71.5872 141.667 71.6328C141.074 71.6784 140.345 71.724 139.479 71.7695C138.613 71.8151 137.599 71.8949 136.437 72.0088C136.847 71.7581 137.143 71.5189 137.326 71.291C137.531 71.0404 137.667 70.8239 137.736 70.6416C137.827 70.4365 137.838 70.2542 137.77 70.0947C137.656 69.8669 137.462 69.5251 137.189 69.0693C136.938 68.682 136.585 68.1351 136.129 67.4287C135.674 66.7223 135.047 65.7881 134.25 64.626C133.338 65.6058 132.632 66.4261 132.13 67.0869C131.652 67.7249 131.287 68.2376 131.037 68.625C130.763 69.0807 130.581 69.4453 130.49 69.7188C130.49 69.9694 130.547 70.2201 130.661 70.4707C130.775 70.6986 130.957 70.9492 131.208 71.2227C131.481 71.4961 131.88 71.7581 132.404 72.0088L122.287 72.4531C123.107 71.8835 123.791 71.3708 124.337 70.915C124.884 70.4365 125.329 70.0378 125.67 69.7188C126.058 69.3314 126.365 68.9896 126.593 68.6934C126.821 68.3516 127.174 67.8503 127.653 67.1895C128.04 66.6198 128.576 65.8564 129.259 64.8994C129.966 63.9424 130.866 62.7119 131.959 61.208C130.752 59.2712 129.772 57.7331 129.02 56.5938C128.291 55.4544 127.698 54.5771 127.243 53.9619C126.719 53.2555 126.331 52.7656 126.081 52.4922C125.853 52.2871 125.534 52.0592 125.124 51.8086C124.782 51.5807 124.337 51.3073 123.791 50.9883C123.244 50.6465 122.571 50.2477 121.774 49.792ZM144.059 48.0488C145.586 48.2311 146.907 48.3678 148.024 48.459C149.14 48.5273 150.063 48.5843 150.792 48.6299C151.636 48.6755 152.342 48.6868 152.912 48.6641C153.504 48.6413 154.313 48.5843 155.338 48.4932C156.204 48.4248 157.344 48.3337 158.756 48.2197C160.169 48.083 161.935 47.9007 164.054 47.6729C164.077 48.1969 164.088 48.7096 164.088 49.2109C164.111 49.6895 164.134 50.111 164.157 50.4756C164.18 50.9085 164.191 51.3073 164.191 51.6719C164.191 52.0592 164.168 52.5492 164.123 53.1416C164.077 53.6429 163.997 54.2809 163.883 55.0557C163.792 55.8076 163.644 56.7077 163.439 57.7559C163.12 56.5254 162.812 55.5342 162.516 54.7822C162.22 54.0075 161.946 53.3923 161.696 52.9365C161.422 52.4124 161.149 52.0137 160.875 51.7402C160.579 51.5352 160.226 51.3643 159.816 51.2275C159.451 51.1136 158.984 51.0225 158.415 50.9541C157.868 50.8857 157.218 50.8971 156.466 50.9883C156.352 53.9961 156.273 56.4342 156.227 58.3027C156.181 60.1712 156.147 61.6296 156.125 62.6777C156.102 63.931 156.09 64.8311 156.09 65.3779C156.113 66.1527 156.238 66.916 156.466 67.668C156.649 68.306 156.945 68.9668 157.355 69.6504C157.765 70.334 158.358 70.9378 159.132 71.4619H154.962C154.575 71.4619 154.097 71.4847 153.527 71.5303C153.048 71.5758 152.433 71.6214 151.681 71.667C150.952 71.7126 150.097 71.7923 149.118 71.9062C149.459 71.3138 149.733 70.7783 149.938 70.2998C150.143 69.8213 150.303 69.4111 150.417 69.0693C150.553 68.6592 150.656 68.2946 150.724 67.9756C150.747 67.5199 150.804 66.597 150.895 65.207C150.918 64.6374 150.941 63.931 150.963 63.0879C151.009 62.2448 151.055 61.2422 151.1 60.0801C151.168 58.918 151.225 57.585 151.271 56.0811C151.339 54.5544 151.408 52.834 151.476 50.9199C151.066 50.806 150.679 50.8174 150.314 50.9541C149.949 51.068 149.63 51.2161 149.357 51.3984C149.038 51.6263 148.73 51.8997 148.434 52.2188C148.138 52.6061 147.807 53.1074 147.443 53.7227C147.124 54.2467 146.759 54.9417 146.349 55.8076C145.939 56.6507 145.472 57.6989 144.948 58.9521C144.834 57.6305 144.754 56.5482 144.708 55.7051C144.663 54.8392 144.629 54.167 144.606 53.6885C144.583 53.1188 144.572 52.6973 144.572 52.4238C144.572 52.1732 144.549 51.8428 144.503 51.4326C144.458 51.0908 144.401 50.6465 144.333 50.0996C144.264 49.5299 144.173 48.8464 144.059 48.0488ZM184.733 47.7412C185.53 47.7412 186.248 47.8779 186.886 48.1514C187.547 48.402 188.151 48.6868 188.698 49.0059C189.267 49.3249 189.803 49.6211 190.304 49.8945C190.806 50.1452 191.318 50.2705 191.842 50.2705C192.252 50.2477 192.72 50.1908 193.244 50.0996C193.699 50.0085 194.223 49.8717 194.816 49.6895C195.431 49.4844 196.115 49.1882 196.867 48.8008C196.115 49.5299 195.5 50.1452 195.021 50.6465C194.565 51.125 194.212 51.5238 193.961 51.8428C193.665 52.2074 193.449 52.4922 193.312 52.6973C193.175 52.9479 192.97 53.3239 192.697 53.8252C192.446 54.2809 192.104 54.8962 191.671 55.6709C191.238 56.4229 190.692 57.4141 190.031 58.6445C190.031 57.0723 189.871 55.8532 189.552 54.9873C189.256 54.1214 188.926 53.4606 188.561 53.0049C188.128 52.4808 187.638 52.1504 187.091 52.0137C186.59 51.9453 186.089 52.0365 185.587 52.2871C185.086 52.515 184.585 52.8568 184.083 53.3125C183.605 53.7682 183.138 54.3151 182.682 54.9531C182.249 55.5684 181.85 56.2178 181.486 56.9014C181.144 57.585 180.859 58.2799 180.631 58.9863C180.403 59.6699 180.255 60.3079 180.187 60.9004C180.119 61.4245 180.107 62.0397 180.153 62.7461C180.198 63.4297 180.301 64.1361 180.46 64.8652C180.62 65.5716 180.825 66.2666 181.076 66.9502C181.326 67.6338 181.634 68.249 181.999 68.7959C182.386 69.32 182.819 69.7529 183.297 70.0947C183.776 70.4137 184.323 70.5618 184.938 70.5391C185.622 70.4935 186.294 70.2884 186.955 69.9238C187.524 69.6276 188.105 69.1719 188.698 68.5566C189.29 67.9186 189.803 67.0186 190.236 65.8564L195.294 66.7793C193.836 68.5566 192.412 69.8896 191.022 70.7783C189.655 71.667 188.424 72.2936 187.331 72.6582C186.055 73.0684 184.847 73.262 183.708 73.2393C182.272 73.0798 180.928 72.6468 179.674 71.9404C178.421 71.234 177.339 70.3796 176.427 69.377C175.539 68.3516 174.844 67.235 174.342 66.0273C173.841 64.8197 173.625 63.6348 173.693 62.4727C173.738 61.6979 173.898 60.7979 174.171 59.7725C174.445 58.7243 174.809 57.6533 175.265 56.5596C175.744 55.4658 176.313 54.3949 176.974 53.3467C177.635 52.2985 178.364 51.3643 179.162 50.5439C179.959 49.7008 180.825 49.0286 181.759 48.5273C182.716 48.0033 183.708 47.7412 184.733 47.7412ZM206.881 47.2285C208.112 47.2741 209.354 47.502 210.607 47.9121C211.883 48.2995 213.056 48.9375 214.127 49.8262C215.198 50.6921 216.11 51.82 216.862 53.21C217.614 54.5771 218.081 56.252 218.263 58.2344C218.423 59.8522 218.218 61.4587 217.648 63.0537C217.101 64.626 216.338 66.0729 215.358 67.3945C214.378 68.7161 213.25 69.8441 211.974 70.7783C210.698 71.6898 209.422 72.2936 208.146 72.5898C207.371 72.7721 206.517 72.7949 205.583 72.6582C204.671 72.4987 203.737 72.2139 202.78 71.8037C201.846 71.3708 200.923 70.8239 200.011 70.1631C199.123 69.5023 198.314 68.7503 197.584 67.9072C196.855 67.0413 196.24 66.1071 195.739 65.1045C195.26 64.1019 194.964 63.0537 194.85 61.96C194.736 61.0485 194.725 60.0459 194.816 58.9521C194.93 57.8356 195.146 56.7305 195.465 55.6367C195.807 54.5202 196.274 53.4492 196.867 52.4238C197.482 51.3757 198.257 50.4642 199.191 49.6895C200.125 48.8919 201.219 48.2767 202.472 47.8438C203.748 47.388 205.218 47.1829 206.881 47.2285ZM200.763 61.0713C200.444 63.5094 200.672 65.4691 201.447 66.9502C202.244 68.4313 203.441 69.3314 205.036 69.6504C205.81 69.8099 206.551 69.6504 207.257 69.1719C207.986 68.6706 208.647 67.9528 209.24 67.0186C209.832 66.0843 210.345 64.9906 210.778 63.7373C211.211 62.484 211.53 61.1738 211.735 59.8066C211.94 58.4395 211.951 57.209 211.769 56.1152C211.61 54.9987 211.325 54.0531 210.915 53.2783C210.504 52.4808 210.003 51.8656 209.411 51.4326C208.841 50.9997 208.249 50.7604 207.633 50.7148C206.562 50.6465 205.628 50.9313 204.831 51.5693C204.033 52.1846 203.361 52.9935 202.814 53.9961C202.267 54.9987 201.823 56.1266 201.481 57.3799C201.162 58.6331 200.923 59.8636 200.763 61.0713ZM219.357 48.2197C220.018 48.3337 220.599 48.4134 221.1 48.459C221.624 48.5046 222.057 48.5387 222.399 48.5615C222.809 48.5843 223.162 48.5957 223.458 48.5957C223.755 48.5957 224.176 48.5729 224.723 48.5273C225.179 48.4818 225.771 48.4248 226.5 48.3564C227.252 48.2881 228.175 48.1742 229.269 48.0146C228.95 48.1058 228.654 48.3678 228.38 48.8008C228.13 49.2109 227.902 49.6553 227.697 50.1338C227.446 50.7035 227.23 51.3301 227.047 52.0137C226.888 52.6289 226.683 53.472 226.432 54.543C226.204 55.6139 225.976 56.776 225.749 58.0293C225.543 59.2826 225.384 60.5586 225.27 61.8574C225.156 63.1335 225.133 64.307 225.202 65.3779C225.293 66.4489 225.509 67.3376 225.851 68.0439C226.193 68.7275 226.717 69.0921 227.423 69.1377C228.494 69.2288 229.383 69.2402 230.089 69.1719C230.819 69.0807 231.411 68.9554 231.867 68.7959C232.322 68.6364 232.676 68.4541 232.926 68.249C233.177 68.0212 233.371 67.8047 233.507 67.5996C233.872 67.0755 234.248 66.4033 234.635 65.583C235.023 64.7627 235.364 63.9766 235.661 63.2246C235.98 62.4727 236.242 61.8346 236.447 61.3105C236.652 60.7865 236.754 60.5358 236.754 60.5586C236.754 60.6042 236.743 60.8662 236.72 61.3447C236.72 61.8005 236.709 62.3587 236.686 63.0195C236.686 63.6576 236.675 64.3298 236.652 65.0361C236.652 65.7425 236.64 66.3464 236.618 66.8477C236.595 67.2578 236.572 67.7135 236.549 68.2148C236.527 68.6478 236.504 69.1605 236.481 69.7529C236.481 70.3454 236.458 70.9948 236.413 71.7012C235.456 71.6328 234.544 71.5872 233.678 71.5645C232.812 71.5417 232.049 71.5303 231.388 71.5303C230.613 71.5303 229.896 71.5417 229.235 71.5645C228.528 71.5872 227.708 71.6214 226.774 71.667C225.976 71.7126 224.985 71.7695 223.8 71.8379C222.615 71.8835 221.248 71.9518 219.699 72.043C219.881 71.724 220.029 71.4277 220.143 71.1543C220.28 70.8809 220.382 70.653 220.451 70.4707C220.542 70.2428 220.599 70.0492 220.622 69.8896C220.758 69.1605 220.872 68.2376 220.963 67.1211C221.055 65.9818 221.123 64.7741 221.168 63.498C221.237 62.222 221.271 60.9232 221.271 59.6016C221.294 58.2572 221.294 57.0153 221.271 55.876C221.248 54.7367 221.203 53.7454 221.134 52.9023C221.089 52.0592 221.02 51.4782 220.929 51.1592C220.815 50.7946 220.679 50.43 220.519 50.0654C220.382 49.7464 220.211 49.4274 220.006 49.1084C219.824 48.7666 219.608 48.4704 219.357 48.2197ZM238.498 48.2197C239.158 48.3337 239.739 48.4134 240.241 48.459C240.765 48.5046 241.198 48.5387 241.54 48.5615C241.95 48.5843 242.303 48.5957 242.599 48.5957C242.895 48.5957 243.317 48.5729 243.864 48.5273C244.319 48.4818 244.912 48.4248 245.641 48.3564C246.393 48.2881 247.316 48.1742 248.41 48.0146C248.091 48.1058 247.794 48.3678 247.521 48.8008C247.27 49.2109 247.042 49.6553 246.837 50.1338C246.587 50.7035 246.37 51.3301 246.188 52.0137C246.028 52.6289 245.823 53.472 245.573 54.543C245.345 55.6139 245.117 56.776 244.889 58.0293C244.684 59.2826 244.525 60.5586 244.411 61.8574C244.297 63.1335 244.274 64.307 244.342 65.3779C244.433 66.4489 244.65 67.3376 244.992 68.0439C245.333 68.7275 245.858 69.0921 246.564 69.1377C247.635 69.2288 248.524 69.2402 249.23 69.1719C249.959 69.0807 250.552 68.9554 251.007 68.7959C251.463 68.6364 251.816 68.4541 252.067 68.249C252.318 68.0212 252.511 67.8047 252.648 67.5996C253.013 67.0755 253.389 66.4033 253.776 65.583C254.163 64.7627 254.505 63.9766 254.801 63.2246C255.12 62.4727 255.382 61.8346 255.587 61.3105C255.792 60.7865 255.895 60.5358 255.895 60.5586C255.895 60.6042 255.884 60.8662 255.861 61.3447C255.861 61.8005 255.849 62.3587 255.827 63.0195C255.827 63.6576 255.815 64.3298 255.792 65.0361C255.792 65.7425 255.781 66.3464 255.758 66.8477C255.736 67.2578 255.713 67.7135 255.69 68.2148C255.667 68.6478 255.644 69.1605 255.622 69.7529C255.622 70.3454 255.599 70.9948 255.553 71.7012C254.596 71.6328 253.685 71.5872 252.819 71.5645C251.953 71.5417 251.19 71.5303 250.529 71.5303C249.754 71.5303 249.036 71.5417 248.375 71.5645C247.669 71.5872 246.849 71.6214 245.915 71.667C245.117 71.7126 244.126 71.7695 242.941 71.8379C241.756 71.8835 240.389 71.9518 238.839 72.043C239.022 71.724 239.17 71.4277 239.284 71.1543C239.42 70.8809 239.523 70.653 239.591 70.4707C239.682 70.2428 239.739 70.0492 239.762 69.8896C239.899 69.1605 240.013 68.2376 240.104 67.1211C240.195 65.9818 240.264 64.7741 240.309 63.498C240.377 62.222 240.412 60.9232 240.412 59.6016C240.434 58.2572 240.434 57.0153 240.412 55.876C240.389 54.7367 240.343 53.7454 240.275 52.9023C240.229 52.0592 240.161 51.4782 240.07 51.1592C239.956 50.7946 239.819 50.43 239.66 50.0654C239.523 49.7464 239.352 49.4274 239.147 49.1084C238.965 48.7666 238.748 48.4704 238.498 48.2197ZM262.15 49.8604C263.289 49.9287 264.246 49.9857 265.021 50.0312C265.819 50.054 266.479 50.0768 267.003 50.0996C267.596 50.1224 268.097 50.1224 268.507 50.0996C268.917 50.0768 269.476 50.0199 270.182 49.9287C270.775 49.8604 271.561 49.7578 272.541 49.6211C273.543 49.4616 274.785 49.2565 276.266 49.0059C275.742 49.5299 275.332 50.0085 275.036 50.4414C274.762 50.8516 274.546 51.2048 274.386 51.501C274.204 51.8656 274.079 52.1732 274.01 52.4238C273.965 52.6517 274.01 53.2214 274.147 54.1328C274.284 55.0443 274.477 56.1266 274.728 57.3799C274.979 58.6104 275.252 59.932 275.548 61.3447C275.845 62.7347 276.141 64.0449 276.437 65.2754C276.733 66.4831 276.995 67.5199 277.223 68.3857C277.474 69.2288 277.656 69.7301 277.77 69.8896C278.112 70.3682 278.328 70.6872 278.419 70.8467C278.511 70.9834 278.67 71.1087 278.898 71.2227C278.989 71.2682 279.137 71.3366 279.342 71.4277C279.525 71.5189 279.764 71.6328 280.06 71.7695C280.379 71.9062 280.778 72.0658 281.256 72.248C280.368 72.2936 279.604 72.3278 278.966 72.3506C278.328 72.3506 277.804 72.362 277.394 72.3848C276.916 72.4076 276.505 72.4303 276.164 72.4531C275.822 72.4531 275.412 72.4759 274.933 72.5215C274.523 72.5671 273.987 72.6126 273.327 72.6582C272.689 72.7038 271.937 72.7493 271.071 72.7949C271.527 72.4759 271.891 72.1911 272.165 71.9404C272.461 71.667 272.689 71.4391 272.848 71.2568C273.03 71.029 273.156 70.8239 273.224 70.6416C273.27 70.4365 273.304 70.1289 273.327 69.7188C273.349 69.3542 273.349 68.8757 273.327 68.2832C273.304 67.668 273.247 66.8704 273.156 65.8906L264.167 66.8135C263.939 67.2008 263.768 67.5426 263.654 67.8389C263.54 68.1123 263.46 68.3516 263.415 68.5566C263.346 68.8073 263.323 69.0124 263.346 69.1719C263.392 69.3542 263.472 69.5706 263.585 69.8213C263.699 70.0492 263.859 70.3226 264.064 70.6416C264.292 70.9378 264.622 71.291 265.055 71.7012C264.486 71.6784 263.904 71.667 263.312 71.667C262.72 71.667 262.173 71.6784 261.671 71.7012C261.079 71.724 260.498 71.7467 259.928 71.7695C259.359 71.7923 258.709 71.8265 257.98 71.8721C257.365 71.9176 256.647 71.9746 255.827 72.043C254.984 72.0885 254.083 72.1569 253.126 72.248C253.719 71.9746 254.22 71.7012 254.63 71.4277C255.041 71.1315 255.382 70.8581 255.656 70.6074C255.975 70.334 256.248 70.0719 256.476 69.8213C256.636 69.5934 256.955 69.0693 257.433 68.249C257.912 67.4059 258.447 66.4147 259.04 65.2754C259.655 64.1361 260.293 62.917 260.954 61.6182C261.637 60.3193 262.252 59.1003 262.799 57.9609C263.346 56.7988 263.791 55.7962 264.132 54.9531C264.474 54.11 264.645 53.5632 264.645 53.3125C264.599 53.0163 264.486 52.6859 264.303 52.3213C264.144 52.0023 263.893 51.6377 263.551 51.2275C263.232 50.8174 262.765 50.3617 262.15 49.8604ZM272.746 63.3613C272.609 62.5638 272.484 61.8802 272.37 61.3105C272.256 60.7181 272.165 60.2282 272.096 59.8408C272.005 59.3851 271.937 58.9863 271.891 58.6445C271.823 58.3255 271.743 57.9154 271.652 57.4141C271.561 56.9811 271.447 56.4456 271.31 55.8076C271.196 55.1468 271.048 54.3607 270.866 53.4492C269.567 56.0469 268.553 58.0635 267.824 59.499C267.117 60.9118 266.605 61.9486 266.286 62.6094C265.898 63.3841 265.682 63.8398 265.636 63.9766L272.746 63.3613ZM278.966 48.5615C279.695 48.7438 280.39 48.8805 281.051 48.9717C281.712 49.0628 282.293 49.1312 282.794 49.1768C283.387 49.2451 283.934 49.2679 284.435 49.2451C285.073 49.2451 285.871 49.1882 286.828 49.0742C287.807 48.9603 288.81 48.8577 289.835 48.7666C290.861 48.6527 291.841 48.5843 292.775 48.5615C293.732 48.516 294.507 48.5729 295.099 48.7324C295.692 48.8691 296.295 49.0856 296.911 49.3818C297.549 49.6553 298.13 50.0085 298.654 50.4414C299.178 50.8516 299.611 51.3415 299.953 51.9111C300.294 52.458 300.488 53.0846 300.534 53.791C300.511 54.6797 300.306 55.5114 299.918 56.2861C299.599 56.9469 299.064 57.6305 298.312 58.3369C297.56 59.0205 296.478 59.5446 295.065 59.9092C295.771 60.0003 296.375 60.1598 296.876 60.3877C297.401 60.5928 297.845 60.8434 298.209 61.1396C298.597 61.4131 298.904 61.7207 299.132 62.0625C299.383 62.4043 299.577 62.7461 299.713 63.0879C300.055 63.8854 300.215 64.7741 300.192 65.7539C300.055 67.0299 299.793 68.0439 299.406 68.7959C299.041 69.5479 298.62 70.1289 298.141 70.5391C297.663 70.9492 297.173 71.234 296.671 71.3936C296.17 71.5531 295.714 71.6784 295.304 71.7695C294.894 71.8607 294.393 71.9062 293.8 71.9062C293.208 71.9062 292.57 71.8949 291.886 71.8721C291.225 71.8265 290.542 71.7923 289.835 71.7695C289.129 71.724 288.457 71.724 287.819 71.7695C287.295 71.8151 286.657 71.8607 285.905 71.9062C285.267 71.9518 284.469 72.0088 283.512 72.0771C282.555 72.1227 281.439 72.1797 280.163 72.248C280.413 72.0658 280.618 71.8607 280.778 71.6328C280.96 71.3822 281.108 71.1657 281.222 70.9834C281.336 70.7555 281.439 70.5391 281.53 70.334C281.598 70.1517 281.655 69.6504 281.701 68.8301C281.746 68.0098 281.78 67.0299 281.803 65.8906C281.826 64.7285 281.837 63.4867 281.837 62.165C281.86 60.8206 281.849 59.5332 281.803 58.3027C281.78 57.0495 281.735 55.9443 281.667 54.9873C281.621 54.0075 281.553 53.3011 281.461 52.8682C281.325 52.3896 281.142 51.8997 280.915 51.3984C280.732 50.9655 280.47 50.4984 280.128 49.9971C279.809 49.4958 279.422 49.0173 278.966 48.5615ZM286.178 52.0479C286.178 52.139 286.19 52.4466 286.212 52.9707C286.235 53.4264 286.258 54.1328 286.281 55.0898C286.326 56.0241 286.383 57.3571 286.452 59.0889C287.021 59.3395 287.58 59.4762 288.126 59.499C288.673 59.499 289.163 59.4762 289.596 59.4307C290.097 59.3623 290.576 59.2484 291.032 59.0889C291.647 58.8382 292.125 58.4281 292.467 57.8584C292.832 57.2887 293.071 56.6963 293.185 56.0811C293.322 55.443 293.356 54.8506 293.288 54.3037C293.219 53.734 293.071 53.3239 292.843 53.0732C292.41 52.6859 291.875 52.3669 291.237 52.1162C290.69 51.9111 289.995 51.7744 289.152 51.7061C288.332 51.6149 287.34 51.7288 286.178 52.0479ZM286.007 68.249C286.85 68.682 287.591 68.9668 288.229 69.1035C288.867 69.2402 289.403 69.3086 289.835 69.3086C290.337 69.3086 290.77 69.2402 291.134 69.1035C291.567 68.8984 291.989 68.625 292.399 68.2832C292.832 67.9186 293.151 67.4971 293.356 67.0186C293.584 66.5173 293.675 65.9704 293.629 65.3779C293.584 64.7627 293.322 64.0905 292.843 63.3613C292.41 62.8372 291.886 62.4271 291.271 62.1309C290.724 61.8802 290.029 61.7207 289.186 61.6523C288.366 61.584 287.352 61.7777 286.144 62.2334L286.007 68.249Z" fill="url(#paint0_linear_102_40)"/>
<defs>
<linearGradient id="paint0_linear_102_40" x1="85" y1="51" x2="266" y2="88" gradientUnits="userSpaceOnUse">
<stop stop-color="#00ECDE"/>
<stop offset="1" stop-color="#32EE88"/>
</linearGradient>
</defs>
</svg>
